<?xml version="1.0" encoding="UTF-8"?>
<svg id="Layer_1" xmlns="http://www.w3.org/2000/svg" version="1.1" viewBox="0 0 64 64">
  <!-- Generator: Adobe Illustrator 29.5.1, SVG Export Plug-In . SVG Version: 2.1.0 Build 141)  -->
  <defs>
    <style>
      .st0 {
        fill: #f2f0e2;
      }

      .st0, .st1 {
        fill-rule: evenodd;
      }
    </style>
  </defs>
  <g id="SVGRepo_iconCarrier">
    <path class="st0" d="M32,5.33c-14.73,0-26.67,11.94-26.67,26.67s11.94,26.67,26.67,26.67,26.67-11.94,26.67-26.67S46.73,5.33,32,5.33ZM24,24c1.48,0,2.67,1.79,2.67,4s-1.2,4-2.67,4-2.67-1.79-2.67-4,1.19-4,2.67-4ZM22.39,41.48c.66-.89,1.91-1.07,2.8-.42,1.94,1.44,4.29,2.27,6.81,2.27s4.87-.83,6.81-2.27c.89-.66,2.14-.47,2.8.42.66.89.47,2.14-.42,2.8-2.59,1.92-5.76,3.06-9.19,3.06s-6.6-1.14-9.19-3.06c-.89-.66-1.07-1.91-.42-2.8ZM40,32c-1.48,0-2.67-1.79-2.67-4s1.19-4,2.67-4,2.67,1.79,2.67,4-1.19,4-2.67,4Z"/>
    <ellipse cx="40" cy="28" rx="2.67" ry="4"/>
    <path class="st1" d="M41.19,44.28c-2.59,1.92-5.76,3.06-9.19,3.06s-6.6-1.14-9.19-3.06c-.89-.66-1.07-1.91-.42-2.8.66-.89,1.91-1.07,2.8-.42,1.94,1.44,4.29,2.27,6.81,2.27s4.87-.83,6.81-2.27c.89-.66,2.14-.47,2.8.42.66.89.47,2.14-.42,2.8Z"/>
    <ellipse cx="24" cy="28" rx="2.67" ry="4"/>
  </g>
</svg>