<?xml version="1.0" encoding="UTF-8"?>
<svg id="Layer_1" xmlns="http://www.w3.org/2000/svg" version="1.1" viewBox="0 0 64 64">
  <!-- Generator: Adobe Illustrator 29.5.1, SVG Export Plug-In . SVG Version: 2.1.0 Build 141)  -->
  <defs>
    <style>
      .st0 {
        fill: #fff;
      }

      .st1 {
        fill-rule: evenodd;
      }
    </style>
  </defs>
  <circle class="st0" cx="32" cy="32" r="23.3"/>
  <g id="SVGRepo_iconCarrier">
    <path class="st1" d="M32,58.67c14.73,0,26.67-11.94,26.67-26.67S46.73,5.33,32,5.33,5.33,17.27,5.33,32s11.94,26.67,26.67,26.67ZM22.39,41.48c.66-.89,1.91-1.07,2.8-.42,1.94,1.44,4.29,2.27,6.81,2.27s4.87-.83,6.81-2.27c.89-.66,2.14-.47,2.8.42.66.89.47,2.14-.42,2.8-2.59,1.92-5.76,3.06-9.19,3.06s-6.6-1.14-9.19-3.06c-.89-.66-1.07-1.91-.42-2.8ZM42.67,28c0,2.21-1.19,4-2.67,4s-2.67-1.79-2.67-4,1.19-4,2.67-4,2.67,1.79,2.67,4ZM24,32c1.47,0,2.67-1.79,2.67-4s-1.19-4-2.67-4-2.67,1.79-2.67,4,1.19,4,2.67,4Z"/>
  </g>
</svg>